Coordinates
version=1
nRows=26
nColumns=24
inDegrees=yes

Units are S.I. units (second, meters, Newtons, ...)
Angles are in degrees.

endheader
time	pelvis_tilt	pelvis_list	pelvis_rotation	pelvis_tx	pelvis_ty	pelvis_tz	hip_flexion_r	hip_adduction_r	hip_rotation_r	knee_angle_r	ankle_angle_r	subtalar_angle_r	mtp_angle_r	hip_flexion_l	hip_adduction_l	hip_rotation_l	knee_angle_l	ankle_angle_l	subtalar_angle_l	mtp_angle_l	lumbar_extension	lumbar_bending	lumbar_rotation
      3.84500000	    -11.32124007	      5.69413060	     -2.11903974	     -0.67494627	     -0.01989356	     -0.28487050	     27.65916037	    -10.39880717	     -6.76482073	    -64.04729316	    -11.67878718	      4.19286349	     27.33772195	     18.08062383	      9.49614142	      6.74580797	    -18.67093707	      8.24694609	      3.97935554	    -10.91182705	     11.48188516	    -10.02800307	     -4.47900573
      3.85000000	    -11.24951381	      5.37645005	     -1.95504063	     -0.66848065	     -0.01881843	     -0.28563498	     28.31113371	    -10.11492946	     -7.19536936	    -63.52389780	    -11.04956406	      4.54463541	     27.55868361	     17.15273080	      9.28664432	      7.24722267	    -18.02116953	      8.35350814	      3.75932803	    -11.21102172	     11.38833403	     -9.69926241	     -4.82200948
      3.85500000	    -11.18246908	      5.07131530	     -1.79279226	     -0.66203474	     -0.01783459	     -0.28639038	     28.95721817	     -9.84209723	     -7.62358339	    -62.94286030	    -10.41852189	      4.86077381	     27.69586662	     16.23672293	      9.07538185	      7.71555894	    -17.37154755	      8.46553924	      3.56675582	    -11.50413963	     11.30271569	     -9.38182580	     -5.14690462
      3.86000000	    -11.17062785	      4.76142519	     -1.66950222	     -0.65560663	     -0.01697525	     -0.28708396	     29.65943033	     -9.53112428	     -8.00497133	    -62.29370671	     -9.83613372	      5.12407582	     27.76767017	     15.40335294	      8.82384535	      8.02389925	    -16.73997894	      8.56881204	      3.46522942	    -11.69668157	     11.28796955	     -9.04439358	     -5.41720670
      3.86500000	    -11.06265233	      4.51123609	     -1.46707738	     -0.64920135	     -0.01616678	     -0.28785111	     30.22712519	     -9.33457788	     -8.45206062	    -61.60905375	     -9.14522073	      5.36257331	     27.73014153	     14.44695575	      8.66318862	      8.53729097	    -16.08247246	      8.69181834	      3.26705396	    -12.01462626	     11.15153729	     -8.80108578	     -5.79012695
      3.87000000	    -11.01647758	      4.26017028	     -1.31537361	     -0.64278957	     -0.01549496	     -0.28853482	     30.85818813	     -9.09325560	     -8.83394936	    -60.85848118	     -8.50679978	      5.54160900	     27.61106326	     13.57497092	      8.46755983	      8.89764748	    -15.44008547	      8.81267513	      3.12675923	    -12.29177228	     11.09867238	     -8.54145322	     -6.08941456
      3.87500000	    -10.97113848	      4.02957069	     -1.16033708	     -0.63639018	     -0.01493120	     -0.28918817	     31.47515656	     -8.86744369	     -9.20676263	    -60.05265060	     -7.87264632	      5.66990684	     27.41775750	     12.71187597	      8.28386315	      9.22711885	    -14.80327306	      8.93754449	      3.00357892	    -12.55836417	     11.04444671	     -8.30728748	     -6.38440279
      3.88000000	    -10.92779288	      3.82333258	     -1.00901348	     -0.62999147	     -0.01447922	     -0.28980983	     32.07930758	     -8.65695117	     -9.55911049	    -59.19215007	     -7.24099311	      5.74882774	     27.14304474	     11.85600026	      8.11688286	      9.53318902	    -14.16980996	      9.06605188	      2.87947126	    -12.82896798	     10.99620560	     -8.09951839	     -6.66738412
      3.88500000	    -10.88886567	      3.64214478	     -0.86189181	     -0.62358903	     -0.01414328	     -0.29039524	     32.67290264	     -8.46156630	     -9.89064491	    -58.27820144	     -6.61353761	      5.78862376	     26.78664887	     11.00975987	      7.96780094	      9.81289965	    -13.54095220	      9.19985256	      2.75690995	    -13.10721375	     10.95579801	     -7.92016114	     -6.93636368
      3.89000000	    -10.85509718	      3.48287463	     -0.71692671	     -0.61719649	     -0.01392447	     -0.29094120	     33.25549499	     -8.27719087	    -10.19916211	    -57.30907311	     -5.99422753	      5.79652887	     26.36928467	     10.17979831	      7.83433236	     10.06109686	    -12.92605396	      9.33944324	      2.64304881	    -13.38151052	     10.92120981	     -7.76773155	     -7.19807580
      3.89500000	    -10.82766199	      3.34022949	     -0.57501314	     -0.61080646	     -0.01382027	     -0.29145622	     33.82541380	     -8.10017561	    -10.48819240	    -56.27981216	     -5.39425595	      5.78020091	     25.92042119	      9.36792580	      7.71201459	     10.27168287	    -12.32723583	      9.48517953	      2.53847773	    -13.63551640	     10.89458626	     -7.63459485	     -7.45580829
      3.90000000	    -10.89578280	      3.23003962	     -0.48850337	     -0.60443017	     -0.01395005	     -0.29189151	     34.50160231	     -7.90505642	    -10.66462113	    -55.18411670	     -4.89134663	      5.74673635	     25.74790954	      8.68461033	      7.60523625	     10.33034202	    -11.75944897	      9.64441125	      2.52481444	    -13.72071898	     10.98626473	     -7.51839951	     -7.62721265
      3.90500000	    -10.76240179	      3.11378857	     -0.28655518	     -0.59803965	     -0.01390647	     -0.29239606	     34.88897107	     -7.78869201	    -11.02493356	    -54.04123473	     -4.27327927	      5.70919190	     24.98944883	      7.75995252	      7.51498435	     10.61605426	    -11.16644254	      9.76524566	      2.35929685	    -14.04837613	     10.82573912	     -7.44303434	     -7.96230962
      3.91000000	    -10.85913930	      3.05463180	     -0.20277573	     -0.59168947	     -0.01425204	     -0.29274183	     35.55367709	     -7.61923346	    -11.13364481	    -52.82372438	     -3.81320601	      5.70985043	     24.81747286	      7.13597417	      7.45530785	     10.61617112	    -10.64468284	      9.90833610	      2.36257145	    -14.11726274	     10.94560092	     -7.39958182	     -8.11900838
      3.91500000	    -10.74428061	      2.99648572	     -0.06052993	     -0.58527299	     -0.01446062	     -0.29317466	     35.94729172	     -7.52058222	    -11.39612394	    -51.63939203	     -3.08386974	      5.92778848	     23.52504855	      6.23540510	      7.41871990	     10.83042679	    -10.06570003	     10.08357556	      2.14342617	    -14.61828183	     10.82003687	     -7.36177480	     -8.37922349
      3.92000000	    -10.81787432	      2.92624331	      0.08010892	     -0.57893473	     -0.01491695	     -0.29355832	     36.51257137	     -7.38075042	    -11.58966286	    -50.28952838	     -2.74098398	      5.94505314	     23.31146775	      5.60781898	      7.35185067	     10.83958001	     -9.58437381	     10.24193170	      2.19693639	    -14.67471998	     10.90104828	     -7.31754888	     -8.58959823
      3.92500000	    -10.69702445	      2.85448388	      0.25288943	     -0.57258357	     -0.01526338	     -0.29393222	     36.82416904	     -7.26692368	    -11.85204160	    -48.91686879	     -2.25644810	      6.08134601	     22.62991057	      4.75309371	      7.28475007	     10.94221580	     -9.08576236	     10.44499269	      2.18807109	    -14.86776302	     10.75043421	     -7.29163531	     -8.90167373
      3.93000000	    -10.68123673	      2.82151213	      0.37705397	     -0.56623521	     -0.01580688	     -0.29425594	     37.24995938	     -7.15667480	    -12.02196158	    -47.51772878	     -1.79563968	      6.38497541	     21.92115174	      4.02666924	      7.25514615	     10.96016450	     -8.61138918	     10.63458419	      2.18142914	    -15.07650733	     10.72846928	     -7.29038434	     -9.11825214
      3.93500000	    -10.78368460	      2.81772261	      0.47354014	     -0.55997346	     -0.01654618	     -0.29452460	     37.79693272	     -7.03702853	    -12.08375941	    -46.03601893	     -1.56987448	      6.63137154	     21.73310319	      3.46138711	      7.25259309	     10.90161578	     -8.18007203	     10.78801148	      2.21951126	    -15.11188528	     10.83058354	     -7.31515157	     -9.29915450
      3.94000000	    -10.66407620	      2.77398285	      0.63781307	     -0.55365859	     -0.01709322	     -0.29483682	     38.03491327	     -6.94661889	    -12.31134287	    -44.52600957	     -1.17592069	      7.08988218	     21.10554730	      2.64588740	      7.20451759	     10.90190044	     -7.74697799	     10.99998366	      2.31815181	    -15.24618380	     10.66987300	     -7.32685831	     -9.59375656
      3.94500000	    -10.77182013	      2.77785682	      0.72336736	     -0.54744044	     -0.01796537	     -0.29502148	     38.53690602	     -6.81845857	    -12.33582534	    -42.95974685	     -1.02122798	      7.49308645	     20.91505499	      2.10952488	      7.20358993	     10.83708332	     -7.35971949	     11.16308622	      2.36596666	    -15.26745921	     10.76482286	     -7.37013258	     -9.76292417
      3.95000000	    -10.64139707	      2.75534188	      0.88527787	     -0.54117479	     -0.01862265	     -0.29532351	     38.71795860	     -6.74700490	    -12.51917741	    -41.38378992	     -0.67904670	      8.16077506	     20.34509148	      1.31296998	      7.17146100	     10.78580403	     -6.98168473	     11.39874107	      2.56814940	    -15.35496469	     10.58498761	     -7.39577088	    -10.05960790
      3.95500000	    -10.74759228	      2.75530917	      0.96838318	     -0.53498592	     -0.01960405	     -0.29544657	     39.16485210	     -6.60680787	    -12.51215962	    -39.75159106	     -0.57149952	      8.71330249	     20.17889654	      0.80054364	      7.15919776	     10.72235161	     -6.64506500	     11.57983985	      2.64836028	    -15.35425559	     10.66759355	     -7.44345098	    -10.22353865
      3.96000000	    -10.64183904	      2.74357571	      1.11701960	     -0.52873936	     -0.02040593	     -0.29569398	     39.32974650	     -6.53739840	    -12.65841360	    -38.12076717	     -0.29419083	      9.51318455	     19.83448161	      0.06198919	      7.12797335	     10.61748762	     -6.32547531	     11.83228094	      2.94471353	    -15.35917354	     10.50619436	     -7.48166221	    -10.51641570
      3.96500000	    -10.67163946	      2.72498304	      1.20568977	     -0.52252782	     -0.02140331	     -0.29580427	     39.63974247	     -6.39505769	    -12.66829167	    -36.46361573	     -0.17241817	     10.25316578	     19.61129472	     -0.51750476	      7.08116302	     10.54394099	     -6.02631185	     12.07451777	      3.17372903	    -15.33342712	     10.49775749	     -7.51075879	    -10.71243002
      3.97000000	    -10.66734051	      2.71026131	      1.31934716	     -0.51635085	     -0.02241358	     -0.29593983	     39.88206169	     -6.26762091	    -12.64978637	    -34.78736026	     -0.01186417	     11.02362807	     19.42980304	     -1.09846951	      7.03849490	     10.46050953	     -5.79505805	     12.33308019	      3.45379045	    -15.27734002	     10.43776126	     -7.54491490	    -10.95443049
